<?xml version="1.0" encoding="utf-8"?>
<!-- Generator: Adobe Illustrator 16.0.0, SVG Export Plug-In . SVG Version: 6.00 Build 0)  -->
<!DOCTYPE svg PUBLIC "-//W3C//DTD SVG 1.1//EN" "http://www.w3.org/Graphics/SVG/1.1/DTD/svg11.dtd">
<svg version="1.1" id="Layer_1" xmlns="http://www.w3.org/2000/svg" xmlns:xlink="http://www.w3.org/1999/xlink" x="0px" y="0px"
	 width="300px" height="300px" viewBox="0 0 300 300" style="enable-background:new 0 0 300 300;" xml:space="preserve">
<defs>
	<style>
		#t1 {
			stroke-dasharray: 1000;
			stroke-dashoffset: 0;
			-webkit-animation: dash 2s ease-in-out forwards;
			-o-animation: dash 2s ease-in-out forwards;
			-moz-animation: dash 2s ease-in-out forwards;
			animation: dash 2s ease-in-out alternate;
			fill:#FC354C;
			transition: 200ms;
			transition-timing-function: ease-in-out;
			-webkit-transition: 200ms;
			-webkit-transition-timing-function: ease-in-out;
		}

		#border {
			stroke-dasharray: 1000;
			stroke-dashoffset: 0;
			-webkit-animation: dash 2s ease-in-out forwards;
			-o-animation: dash 2s ease-in-out forwards;
			-moz-animation: dash 2s ease-in-out forwards;
			animation: dash 2s ease-in-out alternate;
			fill: #FFFFFF;
		}

		@-webkit-keyframes dash {
			from {
				stroke-dashoffset: 1500;
			}
			to {
				stroke-dashoffset: 0;
			}
		}



		#border:hover {
			fill: #FC354C;
		}
	</style>
</defs>

<text id="t1" transform="matrix(1 0 0 1 33.7256 167.834)" style="fill:none;stroke:#FC354C;stroke-width:2;stroke-miterlimit:10; font-family:'LucidaConsole'; font-size:55;">SERVICE</text>
<g>
	<path id="border" d="M286.104,200.029c-11.172,0.304-22.346,0.453-33.518,0.675c-5.587,0.121-11.173,0.147-16.759,0.226
		l-16.759,0.198l-16.758,0.197l-16.76,0.112l-33.517,0.15l-16.759,0.036l-16.759-0.022l-16.758-0.109L85.001,201.3l-33.517-0.416
		l-16.758-0.213l-16.759-0.146l-0.698-0.006l0.003-0.689l0.092-24.915L17.278,150c-0.032-8.305-0.044-16.61-0.152-24.915
		l-0.254-24.915l-0.011-1.082l1.106-0.013l33.517-0.393l33.517-0.261l67.034-0.318l16.758-0.06l16.759-0.009
		c11.173-0.024,22.345,0.021,33.517,0.065c11.174,0.035,22.346,0.074,33.519,0.181l33.517,0.265l1.639,0.013l-0.014,1.612
		c-0.066,8.305-0.117,16.61-0.242,24.915L287.164,150c-0.094,8.305-0.225,16.609-0.382,24.915l-0.483,25.108L286.104,200.029z
		 M285.898,199.626l-0.477-24.711c-0.158-8.306-0.288-16.61-0.382-24.915l-0.321-24.915c-0.125-8.305-0.175-16.61-0.242-24.915
		l1.625,1.625l-33.517,0.265c-11.173,0.107-22.345,0.146-33.519,0.181c-11.172,0.044-22.344,0.089-33.517,0.065l-16.759-0.009
		l-16.758-0.06l-67.034-0.318l-33.517-0.261l-33.517-0.393l1.095-1.095l-0.254,24.915c-0.107,8.305-0.12,16.61-0.152,24.915
		l-0.086,24.915l0.092,24.915l-0.695-0.695l16.759-0.146l16.758-0.214l33.517-0.416l16.758-0.191l16.758-0.109l16.759-0.022
		l16.759,0.036l33.517,0.15l16.759,0.112l16.758,0.197l16.76,0.198c5.586,0.078,11.172,0.104,16.759,0.226
		C263.689,199.177,274.794,199.327,285.898,199.626z"/>
</g>
</svg>
