<?xml version="1.0" encoding="utf-8"?>
<!-- Generator: Adobe Illustrator 16.0.0, SVG Export Plug-In . SVG Version: 6.00 Build 0)  -->
<!DOCTYPE svg PUBLIC "-//W3C//DTD SVG 1.1//EN" "http://www.w3.org/Graphics/SVG/1.1/DTD/svg11.dtd">
<svg version="1.1" id="Layer_1" xmlns="http://www.w3.org/2000/svg" xmlns:xlink="http://www.w3.org/1999/xlink" x="0px" y="0px"
	 width="300px" height="300px" viewBox="0 0 300 300" enable-background="new 0 0 300 300" xml:space="preserve">
<g id="c1">
	<path fill="#FC354C" d="M150.45,6.677c0,0,0.881,0.019,2.585,0.056c1.703,0.072,4.233,0,7.528,0.303
		c6.585,0.406,16.282,1.44,28.191,4.714c11.855,3.287,26.089,8.582,40.576,17.976c7.241,4.662,14.55,10.271,21.566,16.945
		c6.993,6.683,13.792,14.362,19.716,23.21c5.938,8.829,11.157,18.69,15.274,29.413c0.564,1.322,0.975,2.707,1.461,4.07
		c0.466,1.371,0.959,2.74,1.385,4.135c0.396,1.405,0.793,2.816,1.191,4.232l0.599,2.128l0.502,2.162
		c0.33,1.445,0.661,2.896,0.994,4.353c0.323,1.458,0.537,2.943,0.813,4.422c0.584,2.954,0.917,5.967,1.294,8.994
		c0.221,1.51,0.3,3.04,0.418,4.571c0.108,1.531,0.218,3.068,0.327,4.609c0.035,1.544,0.07,3.094,0.106,4.649l0.054,2.335
		c-0.001,0.84-0.037,1.565-0.055,2.355c-0.048,1.551-0.097,3.106-0.146,4.666c-0.069,1.563-0.244,3.152-0.363,4.732
		c-0.194,3.18-0.7,6.319-1.112,9.493c-1.04,6.309-2.321,12.661-4.244,18.899c-0.844,3.153-2.02,6.218-3.074,9.333
		c-0.584,1.538-1.224,3.059-1.834,4.594l-0.93,2.299l-1.041,2.258c-5.439,12.107-12.764,23.563-21.511,34.01
		c-4.371,5.233-9.23,10.092-14.329,14.718c-5.125,4.609-10.688,8.749-16.42,12.672c-23.097,15.491-51.178,24.199-79.544,24.353
		c-7.004-0.038-14.15-0.426-21.149-1.408c-6.995-1.053-13.949-2.449-20.719-4.48c-6.749-2.074-13.394-4.492-19.756-7.5
		c-6.347-3.026-12.528-6.38-18.354-10.25c-5.807-3.887-11.381-8.09-16.542-12.721c-5.129-4.656-10.016-9.547-14.413-14.813
		c-8.82-10.498-16.101-22.086-21.512-34.277l-1.035-2.273l-0.923-2.316c-0.606-1.545-1.241-3.077-1.819-4.625
		c-1.049-3.135-2.208-6.221-3.026-9.396c-1.878-6.281-3.11-12.669-4.1-19.007c-0.387-3.186-0.867-6.345-1.035-9.517
		c-0.105-1.583-0.267-3.158-0.324-4.734c-0.039-1.576-0.077-3.148-0.115-4.716c-0.014-0.801-0.049-1.529-0.045-2.384l0.061-2.315
		c0.041-1.542,0.081-3.078,0.122-4.609c0.115-1.551,0.229-3.097,0.343-4.637c0.124-1.541,0.209-3.084,0.436-4.593
		c0.388-3.031,0.731-6.048,1.326-9.004c0.281-1.48,0.5-2.967,0.829-4.426c0.338-1.457,0.674-2.909,1.01-4.355l0.51-2.163
		l0.607-2.129c0.404-1.417,0.806-2.827,1.207-4.233c0.432-1.395,0.929-2.765,1.397-4.136c0.489-1.364,0.903-2.749,1.47-4.071
		c4.142-10.726,9.384-20.585,15.341-29.407c5.947-8.838,12.745-16.521,19.748-23.199c7.022-6.672,14.34-12.274,21.582-16.938
		c14.492-9.392,28.728-14.69,40.586-17.97c11.912-3.269,21.614-4.299,28.194-4.701c3.291-0.301,5.829-0.229,7.532-0.299
		C149.568,6.696,150.45,6.677,150.45,6.677z M150.446,6.977c0,0-0.876,0.026-2.578,0.076c-1.7,0.083-4.231,0.031-7.512,0.357
		c-6.559,0.452-16.224,1.557-28.06,4.904c-5.946,1.559-12.342,3.94-19.105,6.925c-6.769,2.986-13.81,6.844-20.897,11.598
		C58.129,40.316,43.836,53.736,32.296,71.23c-5.743,8.745-10.762,18.485-14.686,29.043c-3.938,10.551-6.676,21.949-8.046,33.834
		c-0.22,1.484-0.297,2.973-0.414,4.466c-0.109,1.495-0.218,2.995-0.328,4.5c-0.037,1.531-0.074,3.068-0.111,4.609l-0.056,2.315
		c0,0.691,0.035,1.51,0.05,2.261c0.041,1.534,0.081,3.073,0.122,4.616c0.059,1.543,0.222,3.084,0.327,4.633
		c0.169,3.104,0.647,6.193,1.031,9.31c0.982,6.198,2.198,12.444,4.049,18.582c0.812,3.102,1.943,6.119,2.943,9.195
		c0.558,1.517,1.171,3.018,1.755,4.532l0.89,2.271l1.001,2.229c5.229,11.957,12.297,23.344,20.886,33.681
		c4.281,5.187,9.047,10.006,14.053,14.602c5.034,4.575,10.494,8.709,16.15,12.589c22.768,15.369,50.503,24.03,78.556,24.197
		c6.954-0.046,13.985-0.433,20.907-1.41c6.913-1.048,13.785-2.432,20.473-4.447c6.665-2.066,13.225-4.47,19.504-7.457
		c6.263-3.006,12.361-6.332,18.105-10.168c23.03-15.29,40.948-37.178,51.297-61.283l0.994-2.246l0.884-2.287
		c0.58-1.526,1.188-3.037,1.741-4.565c0.992-3.095,2.107-6.134,2.894-9.258c1.806-6.182,2.973-12.463,3.904-18.689
		c0.358-3.129,0.812-6.237,0.953-9.333c0.092-1.551,0.242-3.079,0.288-4.635c0.029-1.56,0.06-3.116,0.089-4.667
		c0.013-0.761,0.047-1.583,0.042-2.29l-0.063-2.295c-0.042-1.528-0.084-3.051-0.126-4.569c-0.115-1.514-0.229-3.023-0.344-4.527
		c-0.123-1.504-0.206-3.006-0.432-4.489c-1.409-11.902-4.205-23.3-8.164-33.854c-3.947-10.562-8.989-20.299-14.752-29.038
		c-11.574-17.483-25.871-30.9-40.045-40.375c-7.09-4.754-14.133-8.611-20.903-11.597c-6.765-2.985-13.163-5.365-19.11-6.92
		c-11.837-3.342-21.508-4.442-28.062-4.891c-3.276-0.325-5.815-0.271-7.516-0.354C151.323,7.002,150.446,6.977,150.446,6.977z"/>
</g>
<text id="t1" transform="matrix(1 0 0 1 33.7256 167.834)" fill="none" stroke="#FC354C" stroke-width="2" stroke-miterlimit="10" font-family="'LucidaConsole'" font-size="55">SERVICE</text>
</svg>
